<?xml version="1.0" encoding="UTF-8" standalone="no"?>
<!-- Created with Inkscape (http://www.inkscape.org/) -->

<svg
   xmlns:dc="http://purl.org/dc/elements/1.1/"
   xmlns:cc="http://creativecommons.org/ns#"
   xmlns:rdf="http://www.w3.org/1999/02/22-rdf-syntax-ns#"
   xmlns:svg="http://www.w3.org/2000/svg"
   xmlns="http://www.w3.org/2000/svg"
   xmlns:sodipodi="http://sodipodi.sourceforge.net/DTD/sodipodi-0.dtd"
   xmlns:inkscape="http://www.inkscape.org/namespaces/inkscape"
   version="1.1"
   width="350"
   height="340"
   id="svg2178"
   inkscape:version="0.48.1 "
   sodipodi:docname="CERN.svg">
  <sodipodi:namedview
     pagecolor="#ffffff"
     bordercolor="#666666"
     borderopacity="1"
     objecttolerance="10"
     gridtolerance="10"
     guidetolerance="10"
     inkscape:pageopacity="0"
     inkscape:pageshadow="2"
     inkscape:window-width="1280"
     inkscape:window-height="738"
     id="namedview10"
     showgrid="false"
     inkscape:zoom="1.4828571"
     inkscape:cx="94.075145"
     inkscape:cy="175"
     inkscape:window-x="-8"
     inkscape:window-y="-8"
     inkscape:window-maximized="1"
     inkscape:current-layer="svg2178" />
  <metadata
     id="metadata2195">
    <rdf:RDF>
      <cc:Work
         rdf:about="">
        <dc:format>image/svg+xml</dc:format>
        <dc:type
           rdf:resource="http://purl.org/dc/dcmitype/StillImage" />
        <dc:title />
      </cc:Work>
    </rdf:RDF>
  </metadata>
  <defs
     id="defs2180">
    <marker
       markerUnits="strokeWidth"
       refX="0"
       refY="5"
       markerWidth="4"
       markerHeight="3"
       orient="auto"
       viewBox="0 0 10 10"
       id="ArrowEnd">
      <path
         d="M 0,0 10,5 0,10 z"
         id="path2183"
         inkscape:connector-curvature="0" />
    </marker>
    <marker
       markerUnits="strokeWidth"
       refX="10"
       refY="5"
       markerWidth="4"
       markerHeight="3"
       orient="auto"
       viewBox="0 0 10 10"
       id="ArrowStart">
      <path
         d="M 10,0 0,5 10,10 z"
         id="path2186"
         inkscape:connector-curvature="0" />
    </marker>
  </defs>
  <path
     d="m 100.88099,143.9938 c -4.73516,0.46885 -13.26353,0.46885 -17.998672,0.46885 l 0,-21.17006 16.102612,0 c 2.36813,0 4.73515,0.46886 7.10328,0.46886 0,-0.46886 -0.47208,-1.40987 -0.47208,-1.88314 0,-0.46886 0.47208,-1.40547 0.47208,-1.88312 -2.36813,0 -4.73515,0.47324 -7.10328,0.47324 l -16.102612,0 0,-18.34924 9.946802,0 8.05187,0.47327 c 2.36812,0 4.73514,0.46335 7.10328,0.46335 0,-0.46335 -0.47651,-1.40986 -0.47651,-1.87433 0,-0.94101 0.47651,-1.40987 0.47651,-2.35087 l -32.214106,0 0,48.93386 32.686176,0 c 0,-0.47326 -0.47207,-1.40657 -0.47207,-1.88314 0,-0.94211 0.47207,-1.41097 0.47207,-2.35198 -2.36813,0.46885 -5.20723,0.46885 -7.57535,0.46885 m 66.32092,-45.172 -2.84908,0 0,49.39832 c 0.47651,-0.46886 1.42066,-0.46886 2.37257,-0.46886 0.47651,0 1.41955,0 1.88719,0.46886 l 0,-39.05047 0.94858,0 34.5778,34.34649 c 1.88718,1.87433 3.31116,3.2886 4.26307,4.69958 l 2.37256,0 0,-49.39831 c -0.95191,0 -1.42398,0.46884 -2.37256,0.46884 -0.94748,0 -1.41955,-0.46884 -2.37146,-0.46884 l 0,37.16621 -0.4632,0 -38.36547,-37.16182 z m -99.011529,41.40574 c -1.415115,1.40548 -8.051861,5.64499 -17.055629,5.64499 -12.310506,0 -21.309841,-8.46583 -21.309841,-22.58434 0,-11.75775 7.098847,-22.58327 21.786347,-22.58327 8.522829,0 14.206561,4.70288 15.631649,6.11716 l 0.470967,0 c 0.472074,-1.88313 0.944149,-3.76627 1.420654,-5.645 -5.208331,-1.88313 -11.367463,-3.29299 -17.051195,-3.29299 -17.055629,0 -30.319148,9.41126 -30.319148,25.40851 0,15.52508 10.892065,25.39969 28.423093,25.39969 6.151374,0 12.787012,-0.93222 17.522163,-3.76187 l 0.48094,-4.70288 z m 54.476949,-18.82249 0,-19.75911 c 3.31117,0 12.31494,-0.46445 15.15957,0 6.15582,0.94212 8.99934,4.23513 8.99934,8.93359 0,5.64499 -4.25975,9.41126 -10.41556,10.35335 -3.791,0.93662 -12.31937,0.46336 -13.73892,0.46336 m 31.7387,20.71004 -16.58356,-18.81809 c 8.04743,-0.93662 16.58356,-5.17174 16.58356,-13.64087 0,-7.05157 -5.68373,-10.81672 -17.99978,-10.81672 l -20.37012,0 0,49.39723 c 1.41955,-0.46776 2.36702,-0.46776 3.7921,-0.46776 0.94305,0 2.3626,0 3.31118,0.46776 l 0,-23.99314 6.62677,0 6.16025,6.58601 9.46696,10.81672 c 1.89606,2.35198 3.31561,4.23511 5.21167,6.5827 1.41511,-0.46886 2.83577,-0.46886 4.73514,-0.46886 1.41623,0 2.83578,0 4.25976,0.46886 l -1.41955,-1.87544 -3.77438,-4.2384 z m -45.64273,108.39168 c -5.18949,-0.74401 -10.28036,-1.8226 -15.26706,-3.17745 12.62633,12.36527 27.85904,21.97792 44.76285,27.93218 l 5.75798,-6.26792 c -12.8391,-4.10526 -24.77837,-10.35226 -35.25377,-18.47801 M 82.501103,87.252282 l 9.869247,0.077 c 12.37588,-15.949922 44.1445,-39.590848 86.75642,-39.590848 9.26862,0 18.27239,1.125916 26.90381,3.207154 -3.38984,-3.513121 -7.00465,-6.806122 -10.83997,-9.844884 -5.25489,-0.688977 -10.6095,-1.084094 -16.05941,-1.084094 -38.10948,0 -73.33332,17.214516 -96.625664,47.231231 M 179.1312,274.51856 c -5.4499,0 -10.79565,-0.46886 -16.07269,-1.20846 l -6.27216,6.84023 c 7.27283,1.33724 14.73515,2.08454 22.34928,2.08454 34.65648,0 65.95303,-14.44979 88.17598,-37.57894 l -2.14206,-9.10639 c -20.94305,23.84785 -51.73759,38.96902 -86.03392,38.96902 m 101.68662,-46.65121 c 9.93019,-14.87133 16.59242,-32.03854 19.09796,-50.50332 l 0.52859,0.0727 19.58334,-139.001615 -7.70169,-1.070775 -13.92065,98.83064 c -8.20701,-38.7753 -35.11082,-70.790717 -70.92199,-86.216641 3.20368,4.156863 6.14251,8.520749 8.8043,13.065134 34.04587,19.647942 57.00576,56.242957 57.00576,98.086737 0,20.38315 -5.47208,39.51051 -14.99113,56.05366 l 2.51551,10.68355 z m -215.856603,-66.73721 0.02549,-2.66565 -7.769283,-0.16729 -0.03103,2.83294 c 0,10.01327 1.230054,19.96602 3.666889,29.58749 2.718306,10.75618 6.891622,20.83769 12.180857,30.13337 4.259746,2.38611 8.696801,4.45855 13.27238,6.26353 C 78.172651,215.82125 71.96033,202.95301 68.389849,188.8345 66.117021,179.83157 64.961214,170.51167 64.961214,161.13014 M 241.10594,126.11343 c 0,62.523 -51.21787,113.38731 -114.16999,113.38731 -52.443489,0 -97.980941,-35.23248 -110.738033,-85.67966 -2.272829,-9.00623 -3.428635,-18.32723 -3.428635,-27.70325 0,-62.519584 51.213431,-113.388413 114.166668,-113.388413 62.95212,0 114.16999,50.864317 114.16999,113.388413 M 126.93595,5.004292 C 59.701906,5.004292 5,59.328902 5,126.10901 c 0,10.01219 1.228945,19.95723 3.661347,29.58309 0.255985,1.01477 0.606162,1.98109 0.887634,2.98813 l -0.06095,0.007 30.56516,108.66354 7.484485,-2.08125 -19.054743,-67.74314 c 22.417997,30.49878 58.520607,49.68226 98.448587,49.68226 20.01551,0 38.90625,-4.84043 55.58954,-13.37011 l -97.46122,106.15636 10.51861,0 121.45058,-132.29233 -0.0388,-0.0385 c 16.46276,-17.91008 27.55319,-40.74318 30.83443,-65.97998 L 294.46144,340 l 7.98315,0 -56.77637,-241.44015 -0.021,0.003 C 236.34419,58.988816 207.46786,26.818222 169.72517,12.71621 L 350,12.71621 350,5"
     id="path2192"
     style="fill:#3366cc;fill-opacity:1;fill-rule:evenodd;stroke:none"
     inkscape:connector-curvature="0" />
</svg>
